<svg xmlns="http://www.w3.org/2000/svg" xmlns:xlink="http://www.w3.org/1999/xlink" version="1.1" x="0" y="0" viewBox="0 0 1236 1025.7" xml:space="preserve" enable-background="new 0 0 1236 1025.7"><style type="text/css"></style><g><path d="M1184.2,20H51.5C38.9,20,28,30.6,28,43.2v765.2c0,12.6,10.9,22.6,23.5,22.6H500c-1.2,25-3.3,79.7-5.8,96.4 c-2,13.6-6.7,27.6-16.7,37.1c-6.2,5.9-13.9,9.8-21.5,13.7c-5.8,3-17.6,6.5-15.7,15c0.9,4.1,4.8,6.7,8.9,6.7h338.2 c4.1,0,7.9-2.6,8.9-6.7c1.9-8.5-9.9-12-15.7-15c-7.6-3.9-15.3-7.7-21.5-13.7c-9.9-9.5-14.7-23.6-16.7-37.2 c-2.4-16.7-4.6-71.4-5.8-96.4h447.5c12.7,0,22.8-9.9,22.8-22.6V43.2C1207,30.6,1196.8,20,1184.2,20z M615,799.9 c-15.1,0-27.4-12.3-27.4-27.4s12.3-27.4,27.4-27.4s27.4,12.3,27.4,27.4S630.1,799.9,615,799.9z M1159,676H76V68h1083V676z"/></g></svg>