<svg xmlns="http://www.w3.org/2000/svg" xmlns:xlink="http://www.w3.org/1999/xlink" version="1.1" x="0" y="0" viewBox="0 0 1000 1000" enable-background="new 0 0 1000 1000" xml:space="preserve"><g><polygon points="590.987,257.002 370.989,257.002 260.99,367.001 700.986,367.001"/><path d="M260.99,696.998h439.996v-82.499H260.99V696.998z M645.986,641.998h27.5v27.5h-27.5V641.998z M398.489,641.998h27.5v27.5 h-27.5V641.998z M343.489,641.998h27.5v27.5h-27.5V641.998z M288.49,641.998h27.5v27.5h-27.5V641.998z"/><path d="M260.99,586.999h439.996v-82.5H260.99V586.999z M645.986,532h27.5v27.499h-27.5V532z M398.489,532h27.5v27.499h-27.5V532z M343.489,532h27.5v27.499h-27.5V532z M288.49,532h27.5v27.499h-27.5V532z"/><path d="M260.99,477h439.996V394.5H260.99V477z M645.986,422h27.5v27.5h-27.5V422z M398.489,422h27.5v27.5h-27.5V422z M343.489,422 h27.5v27.5h-27.5V422z M288.49,422h27.5v27.5h-27.5V422z"/></g></svg>