<svg xmlns="http://www.w3.org/2000/svg" xmlns:xlink="http://www.w3.org/1999/xlink" version="1.1" x="0" y="0" viewBox="0 0 100 100" enable-background="new 0 0 100 100" xml:space="preserve"><g><g><path d="M8.5,52.3V30h55.9v0.6h3.5v-1.9c0-1.2-1-2.2-2.2-2.2H7.2c-1.2,0-2.2,1-2.2,2.2v30.6c0,1.2,1,2.2,2.2,2.2h25.7l-0.6,2.8 c-0.5,0.4-1,0.9-1.4,1.4l-4.1,5.8c-0.3,0.5,0,1.2,0.6,1.2h18.1c0.6,0,0.9-0.7,0.6-1.2l-4.1-5.8c-0.4-0.6-0.9-1-1.4-1.4l-0.6-2.8 h14.2v-9.1H8.5z M36.4,57.9c-0.8,0-1.4-0.6-1.4-1.4c0-0.8,0.6-1.4,1.4-1.4s1.4,0.6,1.4,1.4C37.8,57.3,37.2,57.9,36.4,57.9z"/></g><g><path d="M75.6,68.6H59.8c-0.3,0-0.6-0.3-0.6-0.6l-0.1-31.8c0-0.3,0.3-0.6,0.6-0.6h22c0.3,0,0.6,0.3,0.6,0.6l0,4.4h2.4v-6.3 c0-0.6-0.5-1.1-1.1-1.1H57.9c-0.6,0-1.1,0.5-1.1,1.1v38c0,0.6,0.5,1.1,1.1,1.1h17.9c-0.2-0.4-0.2-0.9-0.2-1.3V68.6z M70.8,72.1 c-0.6,0-1.1-0.5-1.1-1.1c0-0.6,0.5-1.1,1.1-1.1c0.6,0,1.1,0.5,1.1,1.1C71.9,71.6,71.4,72.1,70.8,72.1z"/></g><path d="M93.7,43.3H79.6c-0.7,0-1.3,0.6-1.3,1.3v27.5c0,0.7,0.6,1.3,1.3,1.3h14.1c0.7,0,1.3-0.6,1.3-1.3V44.7 C95,43.9,94.4,43.3,93.7,43.3z M84.5,44.7h4.4c0.2,0,0.3,0.2,0.3,0.3l0,0c0,0.2-0.2,0.3-0.3,0.3h-4.4c-0.2,0-0.3-0.2-0.3-0.3l0,0 C84.1,44.8,84.3,44.7,84.5,44.7z M86.6,72.8c-0.6,0-1-0.5-1-1c0-0.6,0.5-1,1-1s1,0.5,1,1C87.6,72.4,87.2,72.8,86.6,72.8z M94.2,70.1H79.1V46.7h15.1V70.1z"/></g></svg>