<svg width="105" height="82" viewBox="0 0 105 82" version="1.1" xmlns="http://www.w3.org/2000/svg" xmlns:xlink="http://www.w3.org/1999/xlink"><title>negative-space-rt</title><desc>Created with Sketch.</desc><defs><linearGradient x1=".258%" y1="49.75%" x2="101.258%" y2="49.75%" id="linearGradient-1"><stop stop-color="#3023AE" offset="0%"/><stop stop-color="#53A0FE" offset="47.525%"/><stop stop-color="#B4ED50" offset="100%"/></linearGradient></defs><g id="Page-1" stroke="none" stroke-width="1" fill="none" fill-rule="evenodd"><g id="negative-space-rt" transform="translate(52.500000, 41.500000) rotate(80.000000) translate(-52.500000, -41.500000) translate(4.000000, -3.000000)" fill="url(#linearGradient-1)"><g id="Page-1"><g id="JSadler-Icon"><g id="noun_530876"><g id="negative-space"><path d="M82.6042758,29.0191518 C85.1995296,40.1131288 81.4306286,51.671323 72.6595326,59.5169745 C63.8884366,67.362626 51.3834875,70.3612165 39.663572,67.4291518 C66.1436727,46.6291518 78.4170231,30.0691518 78.4170231,30.0691518 C124.177713,-28.7908482 66.8486693,16.9091518 66.8486693,16.9091518 C96.4158007,-1.90084822 73.7063638,24.2591518 73.7063638,24.2591518 C62.6720984,41.0891518 40.0053886,58.4091518 31.7377008,64.4191518 C22.5995933,59.6586496 16.2346273,51.3014233 14.4056592,41.6621105 C12.5766912,32.0227977 15.4778782,22.1246755 22.3057005,14.7091518 C6.31493056,26.8938067 3.28515196,48.6541913 15.4052789,64.2691518 C-19.4279637,105.179152 13.568015,85.2691518 28.885669,75.1091518 C43.0150942,81.9718873 60.189043,80.0558055 72.1999432,70.2766178 C84.2108433,60.4974301 88.6198864,44.8407964 83.3199542,30.7891518 C83.0991977,30.1891518 82.8606382,29.5991518 82.6042758,29.0191518 L82.6042758,29.0191518 L82.6042758,29.0191518 Z M15.950049,64.9591518 C17.879341,67.3252432 20.1146496,69.4581902 22.6047899,71.3091518 C8.05622313,81.7891518 12.5532471,71.2591518 15.950049,64.9591518 L15.950049,64.9591518 L15.950049,64.9591518 Z" id="Shape" style="mix-blend-mode:luminosity"/></g></g></g></g></g></g></svg>